# xmcd CD database file
#
# Track frame offsets:
#	150
#	18957
#	38595
#	55560
#	69505
#	90452
#	112747
#	131857
#	158505
#	176990
#	190505
#	212212
#	227712
#	247450
#	261057
#	286637
#
# Disc length: 4227 seconds
#
# Revision: 4
# Processed by: cddbd v1.5.1PL2 Copyright (c) Steve Scherf et al.
# Submitted via: CDex 1.51
#
DISCID=d2108110
DTITLE=Tramps and Thieves - Spittin' Into The Wind
DYEAR=2006
DGENRE=Country
TTITLE0=The World Is Waiting
TTITLE1=Sidewinder
TTITLE2=To Hell With California
TTITLE3=Spittin' Into The Wind
TTITLE4=Whiteout
TTITLE5=Call You Baby
TTITLE6=L.A.
TTITLE7=Hello Houston
TTITLE8=Barnburner
TTITLE9=Michigan
TTITLE10=Porcupine Jacket
TTITLE11=Harlan's Coming Home (Forgive Us)
TTITLE12=Reworked
TTITLE13=Carolina
TTITLE14=Dusty Wheels
TTITLE15=Deadman's Waltz 
EXTD=YEAR: 2006
EXTT0=
EXTT1=
EXTT2=
EXTT3=
EXTT4=
EXTT5=
EXTT6=
EXTT7=
EXTT8=
EXTT9=
EXTT10=
EXTT11=
EXTT12=
EXTT13=
EXTT14=
EXTT15=
PLAYORDER=
